<svg width="13" height="20" viewBox="0 0 13 20" fill="none" xmlns="http://www.w3.org/2000/svg">
<path d="M12.6795 10.5226L4.21806 19.8232C4.02237 20.0385 3.75377 20.1645 3.46185 20.1781C3.16994 20.1916 2.89099 20.091 2.67651 19.8947L1.99363 19.2705C1.54925 18.8638 1.51762 18.1707 1.9231 17.7251L9.02837 9.91505L1.23305 2.78805C1.01857 2.5918 0.892817 2.32276 0.879468 2.03028C0.866103 1.73747 0.966819 1.45792 1.16251 1.24248L1.78565 0.557867C1.9815 0.342583 2.24994 0.216532 2.54186 0.202987C2.83377 0.189442 3.11272 0.290095 3.3272 0.48634L12.6087 8.97182C12.8237 9.16869 12.9492 9.43905 12.9619 9.73205C12.976 10.0261 12.8757 10.3068 12.6795 10.5226Z" fill="#076BFF"/>
</svg>
